<svg width="512" height="512" viewBox="0 0 512 512" xmlns="http://www.w3.org/2000/svg">
  <defs>
    <linearGradient id="bgGradient" x1="0%" y1="0%" x2="100%" y2="100%">
      <stop offset="0%" style="stop-color:#3B82F6;stop-opacity:1" />
      <stop offset="100%" style="stop-color:#1E40AF;stop-opacity:1" />
    </linearGradient>
    <linearGradient id="chartGradient" x1="0%" y1="0%" x2="100%" y2="100%">
      <stop offset="0%" style="stop-color:#10B981;stop-opacity:1" />
      <stop offset="100%" style="stop-color:#059669;stop-opacity:1" />
    </linearGradient>
  </defs>
  
  <!-- Background circle -->
  <circle cx="256" cy="256" r="240" fill="url(#bgGradient)" stroke="#1E40AF" stroke-width="8"/>
  
  <!-- Magnifying glass handle -->
  <rect x="320" y="320" width="12" height="60" rx="6" fill="#F3F4F6" transform="rotate(45 326 350)"/>
  
  <!-- Magnifying glass rim -->
  <circle cx="256" cy="256" r="80" fill="none" stroke="#F3F4F6" stroke-width="12"/>
  
  <!-- Inner lens area -->
  <circle cx="256" cy="256" r="68" fill="#F8FAFC" opacity="0.9"/>
  
  <!-- Chart bars inside the lens -->
  <rect x="220" y="280" width="16" height="32" rx="2" fill="url(#chartGradient)"/>
  <rect x="244" y="260" width="16" height="52" rx="2" fill="url(#chartGradient)"/>
  <rect x="268" y="240" width="16" height="72" rx="2" fill="url(#chartGradient)"/>
  <rect x="292" y="220" width="16" height="92" rx="2" fill="url(#chartGradient)"/>
  
  <!-- Data points / insights -->
  <circle cx="230" cy="200" r="4" fill="#EF4444"/>
  <circle cx="270" cy="180" r="4" fill="#F59E0B"/>
  <circle cx="290" cy="160" r="4" fill="#10B981"/>
  
  <!-- Connection lines (subtle) -->
  <line x1="230" y1="200" x2="270" y2="180" stroke="#94A3B8" stroke-width="2" opacity="0.6"/>
  <line x1="270" y1="180" x2="290" y2="160" stroke="#94A3B8" stroke-width="2" opacity="0.6"/>
</svg>